<svg width="240" height="234" viewBox="0 0 240 234" fill="none" xmlns="http://www.w3.org/2000/svg">
<g id="&#208;&#191;&#208;&#176;&#209;&#128;&#208;&#186;&#209;&#131;&#209;&#128; &#208;&#187;&#208;&#184;&#208;&#179;&#208;&#176;">
<mask id="mask0_374_1167" style="mask-type:alpha" maskUnits="userSpaceOnUse" x="0" y="0" width="240" height="234">
<rect id="Rectangle 62" width="240" height="234" fill="#D9D9D9"/>
</mask>
<g mask="url(#mask0_374_1167)">
<g id="&#208;&#191;&#208;&#176;&#209;&#128;&#208;&#186;&#209;&#131;&#209;&#128; &#208;&#187;&#208;&#184;&#208;&#179;&#208;&#176;_2">
<path id="Vector" d="M163.596 182.768H73.0299L49.024 50H187.576L163.596 182.768Z" stroke="#D4D4D4" stroke-width="14.2598" stroke-miterlimit="10"/>
<path id="Vector_2" d="M40.1083 154.766V138.819C41.8761 137.821 43.6695 136.848 45.4629 135.901L45.6934 99.1451L38.0075 99.657L35.9579 102.217L35.7529 141.507C31.9868 146.933 28.2207 152.513 24.4802 158.324C21.6364 159.015 18.8182 159.757 16.0256 160.525V143.452L21.3289 140.125L21.4827 96.6111C25.2744 91.4918 29.1686 86.3726 32.8579 81.5093C43.3279 81.2362 53.8662 81.0144 64.4728 80.8438V96.2015L60.5017 98.3772L60.1943 133.828L65.5232 135.21V150.312C57.0003 151.558 48.5287 153.042 40.1083 154.766Z" fill="#303030" stroke="#D4D4D4" stroke-width="32.0847" stroke-linejoin="round"/>
<path id="Vector_3" d="M118.736 96.7388C118.736 107.933 118.736 119.136 118.736 130.347C120.555 130.987 122.348 131.601 124.141 132.266V146.626C116.353 146.626 108.547 146.78 100.725 147.087V132.599L103.927 130.577V114.247C99.9307 119.366 95.9254 124.613 91.9116 129.988V131.268L95.1654 133.009V147.547C87.4794 148.034 79.5629 148.776 71.8 149.723C71.8 144.604 71.8 139.741 71.8 134.749L77.1802 132.19C77.1802 120.654 77.2485 109.11 77.3852 97.5579L72.0306 95.7917V80.7411C79.7166 80.7411 87.4025 80.5363 95.0885 80.4595V95.1006L92.1166 97.0715V113.684C96.0621 108.342 100.033 103.112 104.03 97.993V96.7644L100.853 94.9214V80.3315C108.539 80.3315 116.225 80.3315 123.911 80.3315V94.819L118.736 96.7388Z" fill="#303030" stroke="#D4D4D4" stroke-width="32.0847" stroke-linejoin="round"/>
<path id="Vector_4" d="M163.852 108.872C163.34 104.674 162.853 100.502 162.366 96.33C158.395 96.1764 154.45 96.074 150.504 95.9717L150.53 131.269L157.345 133.675V148.393C148.412 147.54 139.454 147.002 130.47 146.78C130.47 141.994 130.47 137.182 130.47 132.37L135.875 130.603C135.875 119.358 135.875 108.113 135.875 96.8675L130.546 94.871C130.546 90.0333 130.546 85.1956 130.546 80.3579C145.03 80.3579 159.548 80.503 174.1 80.793C174.1 90.3661 174.1 99.9391 174.28 109.487C170.616 109.256 167.183 109.051 163.852 108.872Z" fill="#303030" stroke="#D4D4D4" stroke-width="32.0847" stroke-linejoin="round"/>
<path id="Vector_5" d="M224.52 143.452V160.5C216.356 158.264 208.123 156.31 199.823 154.638C199.823 149.34 199.823 144.016 199.823 138.717L203.537 137.233L202.282 130.501C198.747 129.963 195.237 129.477 191.675 129.016L190.523 135.236L193.981 137.796C193.981 143.017 193.981 148.248 193.981 153.486C186.961 152.155 179.916 151.029 172.845 150.108V135.057C174.638 134.571 176.457 134.11 178.251 133.675C180.574 122.105 182.888 110.399 185.194 98.5565L180.608 96.3041C180.608 91.1848 180.608 86.0655 180.608 80.9463C190.087 81.134 199.558 81.3558 209.02 81.6118C212.265 100.57 215.502 120.04 218.73 140.023C220.592 141.132 222.522 142.275 224.52 143.452ZM193.52 116.909L199.771 117.575C198.67 111.995 197.594 106.44 196.492 100.911C195.518 106.287 194.528 111.619 193.52 116.909Z" fill="#303030" stroke="#D4D4D4" stroke-width="32.0847" stroke-linejoin="round"/>
<path id="Vector_6" d="M179.301 95.8174L187.576 50H49.024L57.2992 95.8174H32.3711V134.877H64.3703L73.0298 182.768H163.596L172.256 134.877H208.636V95.8174H179.301Z" fill="#303030"/>
<path id="Vector_7" d="M40.1339 155.534V139.536C41.9017 138.512 43.6951 137.514 45.4628 136.541C45.4628 124.255 45.5482 111.986 45.719 99.7339L38.0331 100.22L35.9835 102.78C35.881 115.919 35.7871 129.059 35.7017 142.198C31.9099 147.701 28.1694 153.409 24.4289 159.348C21.6107 160.116 18.8182 160.909 16 161.754V144.553C17.7678 143.376 19.5099 142.224 21.2777 141.097C21.2777 126.456 21.3204 111.807 21.4058 97.1487C25.1975 91.927 28.9893 86.876 32.781 81.9956C43.2851 81.8079 53.8149 81.6544 64.3703 81.5349C67.4959 88.5142 70.6472 95.3399 73.824 102.012L60.2967 98.7612C60.1943 110.604 60.1089 122.446 60.0405 134.289L65.3695 135.594V150.619C56.932 152.019 48.5201 153.657 40.1339 155.534Z" fill="#C11D2A" stroke="#303030" stroke-width="17.8248" stroke-linejoin="round"/>
<path id="Vector_8" d="M118.736 97.3788C118.736 108.436 118.736 119.528 118.736 130.654L124.141 132.522C124.141 137.258 124.141 141.993 124.141 146.728C116.455 146.728 108.488 146.728 100.699 147.24C100.699 142.479 100.699 137.719 100.699 132.932L103.902 130.936V114.682C99.905 119.801 95.8827 124.92 91.886 130.27V131.396L95.1397 133.111C95.1397 137.898 95.1397 142.684 95.1397 147.471C87.3513 148.017 79.5714 148.81 71.8 149.851C71.8 144.911 71.8 139.945 71.8 135.005C73.5934 134.161 75.3868 133.316 77.1802 132.446L77.4108 98.0699L72.0562 96.3293C72.0562 91.2101 72.0562 86.3724 72.0562 81.3811L95.1141 81.2019C95.1141 86.0396 95.1141 90.8517 95.1141 95.6638L92.1166 97.7115V114.144C96.1133 108.897 100.11 103.778 104.107 98.7866V97.4812L100.955 95.6638C100.955 90.8517 100.955 86.0652 100.955 81.2531C108.641 81.2531 116.327 81.2531 124.013 81.2531V95.4335L118.736 97.3788Z" fill="#C11D2A" stroke="#303030" stroke-width="17.8248" stroke-linejoin="round"/>
<path id="Vector_9" d="M163.699 109.409C163.212 105.262 162.699 101.09 162.213 96.969L150.376 96.6107L150.53 131.524C152.81 132.292 155.09 133.111 157.345 133.93C157.345 138.793 157.345 143.657 157.345 148.494C148.412 147.59 139.445 147.01 130.444 146.754V132.522L135.85 130.807C135.85 119.699 135.85 108.607 135.85 97.5321L130.546 95.5612V81.2273C145.03 81.2273 159.505 81.3211 173.972 81.5089C173.972 91.0307 173.972 100.527 174.177 110.049L163.699 109.409Z" fill="#C11D2A" stroke="#303030" stroke-width="17.8248" stroke-linejoin="round"/>
<path id="Vector_10" d="M224.443 144.553C224.443 150.287 224.443 156.038 224.443 161.805C216.313 159.382 208.072 157.241 199.72 155.381V139.408L203.435 137.975L202.128 131.269C198.618 130.706 195.083 130.194 191.547 129.707L190.394 135.876L193.853 138.436C193.853 143.555 193.853 148.905 193.853 154.152C186.833 152.693 179.813 151.464 172.742 150.44C172.742 145.321 172.742 140.458 172.742 135.467L178.148 134.161C180.454 122.677 182.76 111.014 185.065 99.1711C183.554 98.4288 182.017 97.6609 180.479 96.9442C180.479 91.8249 180.479 86.7057 180.479 81.5864C189.959 81.5864 199.438 81.8424 208.892 82.0216C212.137 101.099 215.365 120.723 218.576 140.893C220.472 142.122 222.445 143.325 224.443 144.553ZM193.494 117.498L199.72 118.215C198.618 112.584 197.542 107.029 196.441 101.5C195.493 106.876 194.596 112.225 193.494 117.498Z" fill="#C11D2A" stroke="#303030" stroke-width="17.8248" stroke-linejoin="round"/>
<path id="Vector_11" d="M40.1851 156.583V140.483C41.9785 139.433 43.7463 138.384 45.514 137.386C45.6165 125.065 45.7019 112.753 45.7702 100.45L38.0843 100.936C37.3925 101.807 36.7008 102.651 36.0347 103.496C35.9322 116.755 35.8383 130.014 35.7529 143.273C31.9868 148.904 28.2463 154.765 24.5314 160.934C21.7388 161.804 18.9463 162.726 16.1537 163.673V146.088C17.8958 144.834 19.638 143.529 21.4058 142.454V97.6857C25.1633 92.3958 28.9465 87.2765 32.7554 82.3279H64.5496C64.5496 87.4471 64.5496 92.3872 64.4215 97.4041L60.476 99.5542C60.3736 111.328 60.2796 123.103 60.1942 134.877L65.5232 136.106C65.5232 141.071 65.5232 146.063 65.5232 151.028C56.9832 152.581 48.5372 154.433 40.1851 156.583Z" fill="url(#paint0_linear_374_1167)"/>
<path id="Vector_12" d="M118.736 98.2748C118.736 109.111 118.736 119.921 118.736 130.705L124.141 132.548V146.447C116.302 146.447 108.488 146.447 100.674 147.036V133.009L103.876 131.038V115.22C99.8794 120.339 95.8571 125.305 91.8347 130.577V131.704L95.0885 133.342V147.445C87.3 148.06 79.5201 148.913 71.7488 150.005V135.313L77.1546 132.753L77.3851 98.838L72.0562 97.0974C72.0562 92.1829 72.0562 87.2428 72.0562 82.3027H95.1141V96.5087L92.1166 98.582V114.708C96.1133 109.588 100.136 104.469 104.107 99.5802V98.3772L100.93 96.5855V82.4563H123.988V96.4575L118.736 98.2748Z" fill="url(#paint1_linear_374_1167)"/>
<path id="Vector_13" d="M163.699 110.1C163.186 106.005 162.699 101.909 162.187 97.8138L150.351 97.5067C150.351 108.94 150.419 120.373 150.556 131.806C152.81 132.574 155.09 133.393 157.37 134.365C157.37 139.152 157.37 143.938 157.37 148.725C148.429 147.675 139.437 147.01 130.47 146.728C130.47 142.07 130.47 137.437 130.47 132.804L135.875 131.14C135.875 120.253 135.875 109.375 135.875 98.5049L130.546 96.4828V82.4561H174.1C174.1 91.8926 174.169 101.329 174.305 110.766L163.699 110.1Z" fill="url(#paint2_linear_374_1167)"/>
<path id="Vector_14" d="M224.315 146.089V163.725C216.219 160.96 208.021 158.529 199.72 156.43V140.355L203.384 138.947L202.077 132.088C198.567 131.473 195.057 130.91 191.522 130.373L190.369 136.541L193.827 139.101C193.827 144.22 193.827 149.596 193.827 154.843C186.859 153.205 179.813 151.797 172.768 150.619C172.768 145.679 172.768 140.739 172.768 135.799L178.174 134.571C180.48 123.172 182.777 111.585 185.065 99.8107C183.554 99.0428 182.017 98.3006 180.48 97.5839C180.48 92.4646 180.48 87.3453 180.48 82.2261H208.764C212.018 101.474 215.22 121.363 218.371 142.07C220.37 143.529 222.342 144.783 224.315 146.089ZM193.571 118.291L199.797 119.034C198.721 113.385 197.636 107.788 196.543 102.242C195.442 107.643 194.596 112.993 193.469 118.291H193.571Z" fill="url(#paint3_linear_374_1167)"/>
<path id="Vector_15" d="M40.1851 156.583V140.483C41.9785 139.433 43.7463 138.384 45.514 137.386C45.6165 125.065 45.7019 112.753 45.7702 100.45L38.0843 100.936C37.3925 101.807 36.7008 102.651 36.0347 103.496C35.9322 116.755 35.8383 130.014 35.7529 143.273C31.9868 148.904 28.2463 154.765 24.5314 160.934C21.7388 161.804 18.9463 162.726 16.1537 163.673V146.088C17.8958 144.834 19.638 143.529 21.4058 142.454V97.6857C25.1633 92.3958 28.9465 87.2765 32.7554 82.3279H64.5496C64.5496 87.4471 64.5496 92.3872 64.4215 97.4041L60.476 99.5542C60.3736 111.328 60.2796 123.103 60.1942 134.877L65.5232 136.106C65.5232 141.071 65.5232 146.063 65.5232 151.028C56.9832 152.581 48.5372 154.433 40.1851 156.583Z" fill="#FCFDFD"/>
<path id="Vector_16" d="M118.736 98.2748C118.736 109.111 118.736 119.921 118.736 130.705L124.141 132.548V146.447C116.302 146.447 108.488 146.447 100.674 147.036V133.009L103.876 131.038V115.22C99.8794 120.339 95.8571 125.305 91.8347 130.577V131.704L95.0885 133.342V147.445C87.3 148.06 79.5201 148.913 71.7488 150.005V135.313L77.1546 132.753L77.3851 98.838L72.0562 97.0974C72.0562 92.1829 72.0562 87.2428 72.0562 82.3027H95.1141V96.5087L92.1166 98.582V114.708C96.1133 109.588 100.136 104.469 104.107 99.5802V98.3772L100.93 96.5855V82.4563H123.988V96.4575L118.736 98.2748Z" fill="#FCFDFD"/>
<path id="Vector_17" d="M163.699 110.1C163.186 106.005 162.699 101.909 162.187 97.8138L150.351 97.5067C150.351 108.94 150.419 120.373 150.556 131.806C152.81 132.574 155.09 133.393 157.37 134.365C157.37 139.152 157.37 143.938 157.37 148.725C148.429 147.675 139.437 147.01 130.47 146.728C130.47 142.07 130.47 137.437 130.47 132.804L135.875 131.14C135.875 120.253 135.875 109.375 135.875 98.5049L130.546 96.4828V82.4561H174.1C174.1 91.8926 174.169 101.329 174.305 110.766L163.699 110.1Z" fill="#FCFDFD"/>
<path id="Vector_18" d="M224.315 146.089V163.725C216.219 160.96 208.021 158.529 199.72 156.43V140.355L203.384 138.947L202.077 132.088C198.567 131.473 195.057 130.91 191.522 130.373L190.369 136.541L193.827 139.101C193.827 144.22 193.827 149.596 193.827 154.843C186.859 153.205 179.813 151.797 172.768 150.619C172.768 145.679 172.768 140.739 172.768 135.799L178.174 134.571C180.48 123.172 182.777 111.585 185.065 99.8107C183.554 99.0428 182.017 98.3006 180.48 97.5839C180.48 92.4646 180.48 87.3453 180.48 82.2261H208.764C212.018 101.474 215.22 121.363 218.371 142.07C220.37 143.529 222.342 144.783 224.315 146.089ZM193.571 118.291L199.797 119.034C198.721 113.385 197.636 107.788 196.543 102.242C195.442 107.643 194.596 112.993 193.469 118.291H193.571Z" fill="white"/>
<path id="Vector_19" d="M75.1564 67.8154L76.1299 68.2506V71.4757H69.0588V68.2506L70.6729 67.8154V60.2901L69.0588 59.855V56.6042H84.7126V59.855L83.0985 60.2901V67.8154L84.7126 68.2506V71.4757H77.7952V68.2506L78.7431 67.8154V59.855H75.1564V67.8154Z" fill="#D4D4D4"/>
<path id="Vector_20" d="M101.852 68.2506V71.4757H94.32V68.2506L95.4472 67.8154L95.0629 66.51H91.8348L91.4762 67.8154L92.5266 68.2506V71.4757H86.1472V68.2506L87.7869 67.8154L89.9646 60.2901L88.5811 59.855V56.6042H97.2406L100.11 67.8154L101.852 68.2506ZM92.4753 63.9504H94.3456L93.3976 60.6229L92.4753 63.9504Z" fill="#D4D4D4"/>
<path id="Vector_21" d="M117.198 63.7712L114.124 66.3308H109.205V67.8154L110.819 68.2506V71.4501H103.133V68.2506L104.747 67.8154V60.2901L103.133 59.855V56.6042H114.073L117.147 59.1639L117.198 63.7712ZM109.205 60.2901V62.6706H112.228L112.792 62.2098V60.7252L112.228 60.2901H109.205Z" fill="#D4D4D4"/>
<path id="Vector_22" d="M132.212 60.2901L129.803 62.2866L132.775 67.8154L134.261 68.2506V71.4757H127.19V68.2506L128.266 67.8154L126.601 64.8463L124.884 66.2796V67.8154L125.96 68.2506V71.4757H118.736V68.2506L120.35 67.8154V60.2901L118.736 59.855V56.6042H125.909V59.855L124.884 60.2901V63.1569L128.215 60.2901L127.165 59.855V56.6042H134.261V59.855L132.212 60.2901Z" fill="#D4D4D4"/>
<path id="Vector_23" d="M137.566 60.2901L135.952 59.855V56.6042H142.972V59.855L141.998 60.2901V61.6467L142.536 62.0819H145.662V60.2901L144.663 59.855V56.6042H151.657V59.855L150.043 60.2901V68.6345L146.61 71.4757H140.794L137.771 68.9161V66.3564H141.742L142.152 67.8922H144.97L145.611 67.3803V65.3838H140.487L137.438 62.8241L137.566 60.2901Z" fill="#D4D4D4"/>
<path id="Vector_24" d="M167.542 63.7712L164.442 66.3308H159.548V67.8154L161.162 68.2506V71.4501H153.604V68.2506L155.218 67.8154V60.2901L153.604 59.855V56.6042H164.518L167.618 59.1639L167.542 63.7712ZM159.548 60.2901V62.6706H162.571L163.135 62.2098V60.7252L162.571 60.2901H159.548Z" fill="#D4D4D4"/>
<path id="Vector_25" d="M64.8315 67.354H58.1959L60.5017 60.699H62.5257L64.8315 67.354Z" fill="#D4D4D4"/>
<path id="Vector_26" d="M178.507 67.354H171.846L174.177 60.699H176.175L178.507 67.354Z" fill="#D4D4D4"/>
<path id="Vector_27" d="M101.135 184.253H79.3579L87.0951 165.055H93.3976L101.135 184.253Z" fill="#D4D4D4"/>
<path id="Vector_28" d="M129.265 184.253H107.463L115.226 165.055H121.503L129.265 184.253Z" fill="#D4D4D4"/>
<path id="Vector_29" d="M157.294 184.253H135.491L143.254 165.055H149.531L157.294 184.253Z" fill="#D4D4D4"/>
<path id="Vector_30" d="M173.562 156.993C171.797 156.716 170.018 156.536 168.233 156.455C150.889 155.406 95.9085 152.616 68.444 156.762L63.32 157.556L61.3729 153.896L116.994 147.369L169.719 151.234L173.562 156.993Z" fill="#303030"/>
<path id="Vector_31" d="M92.7057 168.025H87.5049V169.663H92.7057V168.025Z" fill="#303030"/>
<path id="Vector_32" d="M120.913 168.025H115.712V169.663H120.913V168.025Z" fill="#303030"/>
<path id="Vector_33" d="M149.326 168.025H144.125V169.663H149.326V168.025Z" fill="#303030"/>
</g>
</g>
</g>
<defs>
<linearGradient id="paint0_linear_374_1167" x1="40.9025" y1="106.03" x2="40.9025" y2="155.636" gradientUnits="userSpaceOnUse">
<stop offset="0.47" stop-color="#FCFDFD"/>
<stop offset="0.55" stop-color="#F6F7F8"/>
<stop offset="0.65" stop-color="#E5E7E9"/>
<stop offset="0.78" stop-color="#C9CDD0"/>
<stop offset="0.91" stop-color="#A3A9AE"/>
<stop offset="1" stop-color="#858C93"/>
</linearGradient>
<linearGradient id="paint1_linear_374_1167" x1="97.9579" y1="102.908" x2="97.9579" y2="145.961" gradientUnits="userSpaceOnUse">
<stop offset="0.47" stop-color="#FCFDFD"/>
<stop offset="0.55" stop-color="#F6F7F8"/>
<stop offset="0.65" stop-color="#E5E7E9"/>
<stop offset="0.78" stop-color="#C9CDD0"/>
<stop offset="0.91" stop-color="#A3A9AE"/>
<stop offset="1" stop-color="#858C93"/>
</linearGradient>
<linearGradient id="paint2_linear_374_1167" x1="152.246" y1="110.458" x2="152.246" y2="145.756" gradientUnits="userSpaceOnUse">
<stop offset="0.47" stop-color="#FCFDFD"/>
<stop offset="0.55" stop-color="#F6F7F8"/>
<stop offset="0.65" stop-color="#E5E7E9"/>
<stop offset="0.78" stop-color="#C9CDD0"/>
<stop offset="0.91" stop-color="#A3A9AE"/>
<stop offset="1" stop-color="#858C93"/>
</linearGradient>
<linearGradient id="paint3_linear_374_1167" x1="198.516" y1="102.294" x2="198.516" y2="154.228" gradientUnits="userSpaceOnUse">
<stop offset="0.47" stop-color="#FCFDFD"/>
<stop offset="0.55" stop-color="#F6F7F8"/>
<stop offset="0.65" stop-color="#E5E7E9"/>
<stop offset="0.78" stop-color="#C9CDD0"/>
<stop offset="0.91" stop-color="#A3A9AE"/>
<stop offset="1" stop-color="#858C93"/>
</linearGradient>
</defs>
</svg>
