<svg width="20" height="19" viewBox="0 0 20 19" fill="none" xmlns="http://www.w3.org/2000/svg">
<g id="location_on 1">
<g id="Group">
<path id="Vector" d="M9.65192 1.58331C6.53909 1.58331 4.02148 4.06123 4.02148 7.12498C4.02148 11.2812 9.65192 17.4166 9.65192 17.4166C9.65192 17.4166 15.2824 11.2812 15.2824 7.12498C15.2824 4.06123 12.7647 1.58331 9.65192 1.58331ZM5.63018 7.12498C5.63018 4.93998 7.43192 3.16665 9.65192 3.16665C11.8719 3.16665 13.6737 4.93998 13.6737 7.12498C13.6737 9.40498 11.3571 12.8171 9.65192 14.9466C7.97888 12.8329 5.63018 9.38123 5.63018 7.12498Z" fill="white"/>
<path id="Vector_2" d="M9.65186 9.10415C10.1852 9.10415 10.6966 8.89563 11.0738 8.52446C11.4509 8.1533 11.6627 7.64989 11.6627 7.12498C11.6627 6.60007 11.4509 6.09666 11.0738 5.7255C10.6966 5.35433 10.1852 5.14581 9.65186 5.14581C9.11854 5.14581 8.60707 5.35433 8.22996 5.7255C7.85285 6.09666 7.64099 6.60007 7.64099 7.12498C7.64099 7.64989 7.85285 8.1533 8.22996 8.52446C8.60707 8.89563 9.11854 9.10415 9.65186 9.10415Z" fill="white"/>
</g>
</g>
</svg>
