<svg width="262" height="20" viewBox="0 0 262 20" fill="none" xmlns="http://www.w3.org/2000/svg">
<path d="M11.7716 19.4602L5.52812 11.1355H4.11897V19.4277H0V0.00341797H4.11897V7.77528H4.94278L11.4464 0.00341797H16.5627L8.97506 9.03266L16.9204 19.4602H11.7716Z" fill="black"/>
<path d="M19.9663 19.7312V16.3818H21.0502C21.485 16.397 21.9188 16.3309 22.3293 16.1867C22.6351 16.072 22.902 15.8728 23.0989 15.6122C23.3126 15.3192 23.4774 14.9933 23.5866 14.6475L23.8251 14.008L16.7578 0.00341797H21.0177L25.592 9.58548L29.4183 0.00341797H33.624L26.9144 15.6447C26.574 16.3466 26.1674 17.0144 25.7004 17.6392C25.2621 18.2598 24.6874 18.7715 24.0203 19.135C23.2079 19.5435 22.3058 19.7411 21.3971 19.7095L19.9663 19.7312Z" fill="black"/>
<path d="M33.6997 19.4602V16.1542H34.2525C34.5777 16.1392 34.8966 16.0597 35.1907 15.9201C35.4847 15.7805 35.748 15.5837 35.9651 15.3412C36.4932 14.6647 36.8335 13.8608 36.9515 13.0107C37.2067 11.5789 37.348 10.1291 37.3743 8.67497L37.6995 0.00341797H50.9019V19.4602H46.9021V3.29858H41.4824L41.1789 10.0732C41.1353 11.8787 40.8769 13.6727 40.4093 15.4171C40.1025 16.6265 39.4053 17.701 38.4257 18.4738C37.3302 19.1881 36.0352 19.5338 34.7294 19.4602H33.6997Z" fill="black"/>
<path d="M55.9205 7.20079H60.5598C61.9306 7.16844 63.2931 7.42321 64.5596 7.94871C65.6065 8.38254 66.5034 9.1136 67.1393 10.0516C67.76 11.0005 68.0775 12.1157 68.0499 13.2492C68.077 14.3996 67.7599 15.532 67.1393 16.501C66.5053 17.4563 65.6097 18.2089 64.5596 18.6689C63.3011 19.225 61.9351 19.4952 60.5598 19.4602H53.2974V0.00341797H57.3947V16.1542H60.5598C61.2083 16.1758 61.8522 16.0381 62.435 15.7531C62.9111 15.5053 63.3089 15.13 63.584 14.6692C63.8441 14.2257 63.979 13.72 63.9742 13.2058C63.9791 12.8331 63.9031 12.4637 63.7516 12.1232C63.6 11.7826 63.3764 11.4789 63.0962 11.2331C62.3816 10.6564 61.476 10.37 60.5598 10.431H55.9205V7.20079Z" fill="black"/>
<path d="M68.4622 3.39614V0.00341797H84.4395V3.39614H78.4778V19.4602H74.413V3.39614H68.4622Z" fill="black"/>
<path d="M88.1028 19.7312V16.3818H89.1867C89.6179 16.3962 90.048 16.33 90.4549 16.1867C90.7638 16.0722 91.0343 15.8731 91.2354 15.6122C91.4409 15.3142 91.605 14.9896 91.7232 14.6475L91.9616 14.008L84.8943 0.00341797H89.1434L93.7285 9.58548L97.5548 0.00341797H101.75L95.0725 15.6447C94.7435 16.3481 94.344 17.0164 93.8802 17.6392C93.4352 18.2577 92.8575 18.7688 92.1892 19.135C91.378 19.5467 90.4751 19.7444 89.5661 19.7095L88.1028 19.7312Z" fill="black"/>
<path d="M102.899 19.4602V0.00338223H110.573C111.882 -0.0351185 113.179 0.255599 114.345 0.848857C115.35 1.37351 116.176 2.1846 116.719 3.17933C117.264 4.23698 117.548 5.40947 117.548 6.59917C117.548 7.78888 117.264 8.96137 116.719 10.019C116.156 11.0076 115.315 11.8101 114.302 12.3278C113.113 12.9095 111.799 13.1923 110.476 13.1516H105.587V9.89976H109.814C110.492 9.92261 111.165 9.78133 111.776 9.48789C112.27 9.23097 112.675 8.83036 112.936 8.33891C113.186 7.80837 113.316 7.22908 113.316 6.64254C113.316 6.05599 113.186 5.47671 112.936 4.94616C112.665 4.47428 112.257 4.09617 111.766 3.86222C111.151 3.56789 110.474 3.42657 109.793 3.45032H106.996V19.5469L102.899 19.4602Z" fill="black"/>
<path d="M120.253 19.4602H115.841L122.562 0.00341797H127.862L134.572 19.4602H130.16L125.293 4.44756H125.142L120.253 19.4602ZM119.982 11.8184H130.388V15.0702H120.004L119.982 11.8184Z" fill="black"/>
<path d="M157.508 0.00341797V19.4602H153.443V3.3528H145.584V19.4602H141.509V0.00341797H157.508Z" fill="black"/>
<path d="M163.719 19.4602H159.308L166.028 0.00341797H171.329L178.038 19.4602H173.627L168.781 4.44756H168.63L163.719 19.4602ZM163.448 16.2084H173.854V19.4602H163.448V16.2084Z" fill="black"/>
<path d="M179.306 19.4602V0.00338223H186.98C188.289 -0.0351185 189.586 0.255599 190.753 0.848857C191.76 1.37027 192.587 2.18219 193.126 3.17933C193.693 4.22672 193.977 5.40341 193.95 6.59375C193.98 7.78921 193.692 8.97112 193.116 10.019C192.554 11.0096 191.714 11.8127 190.698 12.3278C189.509 12.9095 188.196 13.1923 186.872 13.1516H181.983V9.89976H186.211C186.888 9.92261 187.562 9.78133 188.173 9.48789C188.669 9.23381 189.074 8.83245 189.333 8.33891C189.583 7.80837 189.712 7.22908 189.712 6.64254C189.712 6.05599 189.583 5.47671 189.333 4.94616C189.066 4.47505 188.661 4.09683 188.173 3.86222C187.554 3.56781 186.874 3.42653 186.189 3.45032H183.414V19.5469L179.306 19.4602Z" fill="black"/>
<path d="M207.337 19.4602L201.082 11.1355H199.673V19.4277H195.565V0.00341797H199.673V7.77528H200.497L207.001 0.00341797H212.139L204.551 9.03266L212.486 19.4602H207.337Z" fill="black"/>
<path d="M215.521 19.7312V16.3818H216.605C217.036 16.3962 217.466 16.33 217.873 16.1867C218.182 16.0722 218.452 15.8731 218.653 15.6122C218.859 15.3142 219.023 14.9896 219.141 14.6475L219.38 14.008L212.312 0.00341797H216.561L221.146 9.58548L224.973 0.00341797H229.168L222.458 15.6447C222.147 16.3534 221.766 17.0288 221.32 17.6608C220.875 18.2794 220.297 18.7905 219.629 19.1567C218.818 19.5683 217.915 19.7661 217.006 19.7312H215.521Z" fill="black"/>
<path d="M230.316 19.4602V0.00338223H237.991C239.299 -0.0351185 240.596 0.255599 241.763 0.848857C242.767 1.37351 243.594 2.1846 244.137 3.17933C244.681 4.23698 244.966 5.40947 244.966 6.59917C244.966 7.78888 244.681 8.96137 244.137 10.019C243.573 11.0076 242.733 11.8101 241.719 12.3278C240.53 12.9095 239.217 13.1923 237.893 13.1516H233.005V9.89976H237.232C237.91 9.92261 238.583 9.78133 239.194 9.48789C239.688 9.23097 240.092 8.83036 240.354 8.33891C240.604 7.80837 240.734 7.22908 240.734 6.64254C240.734 6.05599 240.604 5.47671 240.354 4.94616C240.083 4.47428 239.674 4.09617 239.183 3.86222C238.568 3.56789 237.891 3.42657 237.21 3.45032H234.435V19.5469L230.316 19.4602Z" fill="black"/>
<path d="M247.67 19.4602H243.259L249.979 0.00341797H255.28L262 19.4602H257.588L252.722 4.44756H252.57L247.67 19.4602ZM247.399 11.8184H257.805V15.0702H247.399V11.8184Z" fill="black"/>
</svg>
