                <svg
                  width="30"
                  height="25"
                  viewBox="0 0 30 25"
                  fill="#2E2E2E"
                  class="spot-links__icon"
                  xmlns="http://www.w3.org/2000/svg"
                >
                  <g
                    id="&#208;&#160;&#208;&#181;&#208;&#182;&#208;&#184;&#208;&#188;_&#208;&#184;&#208;&#183;&#208;&#190;&#208;&#187;&#209;&#143;&#209;&#134;&#208;&#184;&#208;&#184;"
                    opacity="0.7"
                    clip-path="url(#clip0_337_1068)"
                  >
                    <path
                      id="Vector"
                      d="M29.0969 0.0589377C28.9849 0.0569793 28.8736 0.0771071 28.7694 0.118164L0.585486 10.7695C0.411466 10.8362 0.262347 10.9547 0.158402 11.1088C0.0544566 11.2628 0.00072672 11.445 0.00452151 11.6305C0.0083163 11.816 0.069457 11.9959 0.179616 12.1456C0.289776 12.2953 0.443616 12.4076 0.620224 12.4673L7.15511 14.6637L11.0949 22.5116C11.1229 22.5689 11.1637 22.6191 11.2142 22.6584C11.2646 22.6977 11.3234 22.725 11.386 22.7383C11.4487 22.7516 11.5136 22.7506 11.5758 22.7352C11.638 22.7199 11.6958 22.6907 11.7449 22.6498L15.4366 19.5353L11.3132 16.4258L11.6358 20.5076L8.65859 14.4071L24.4079 4.99959L11.348 16.4505L21.5547 24.1502C21.8745 24.396 22.2671 24.5296 22.6712 24.5303C23.0863 24.5305 23.4895 24.3926 23.8168 24.1386C24.1441 23.8846 24.3766 23.5291 24.4773 23.1285L29.9752 1.17934C30.0082 1.04652 30.0105 0.907964 29.9819 0.774127C29.9533 0.64029 29.8944 0.514673 29.8098 0.406764C29.7253 0.298855 29.6171 0.211467 29.4936 0.151211C29.3701 0.0909555 29.2345 0.0594098 29.0969 0.0589377Z"
                    />
                  </g>
                  <defs>
                    <clipPath id="clip0_337_1068">
                      <rect
                        width="30"
                        height="24.4713"
                        fill="white"
                        transform="translate(0 0.0589294)"
                      />
                    </clipPath>
                  </defs>
                </svg>
