                <svg
                  width="43"
                  height="25"
                  viewBox="0 0 43 25"
                  fill="#2E2E2E"
                  class="spot-links__icon"
                  xmlns="http://www.w3.org/2000/svg"
                >
                  <g id="_30" opacity="0.7" clip-path="url(#clip0_337_1066)">
                    <rect
                      width="43"
                      height="24.4713"
                      transform="translate(0 0.0589294)"
                      fill="white"
                    />
                    <path
                      id="Vector"
                      d="M42.5628 21.3474L42.5378 21.3016C41.667 19.7296 39.7535 17.8193 38.3023 16.494L38.2019 16.4059C36.8439 15.1653 36.0949 14.485 36.0806 13.8682C36.0663 13.2514 36.7973 12.3033 38.1016 10.6326C38.5244 10.0969 39.0046 9.48712 39.5349 8.77515C43.0681 4.15087 43.1469 2.71636 42.8961 2.03611C42.7456 1.61668 42.2619 1.11619 40.8285 1.11619C40.5526 1.11619 40.3376 1.13381 40.2659 1.14086L33.9772 1.17963C33.9378 1.17963 33.8697 1.17963 33.7837 1.17963C33.482 1.17488 33.1843 1.24778 32.9201 1.39111C32.608 1.60584 32.3605 1.89925 32.2034 2.24054C32.2034 2.24054 32.2034 2.25816 32.2034 2.26874C31.5564 3.92134 30.7838 5.52368 29.8922 7.0622C27.3659 11.2917 26.3769 11.6089 26.1369 11.6089C26.1128 11.611 26.0887 11.6048 26.0688 11.5913C25.37 11.1472 25.4094 9.68098 25.4417 8.50024C25.4417 8.23237 25.4596 7.98212 25.4596 7.73892C25.4596 6.69916 25.4954 5.80391 25.5277 5.0144C25.5814 3.65743 25.6209 2.68112 25.4345 1.94447C25.3491 1.54808 25.144 1.18628 24.846 0.906437C24.5481 0.62659 24.1712 0.441719 23.7647 0.37602C22.7659 0.138366 21.7387 0.0363794 20.7117 0.0729038H19.7693C17.7734 0.0729038 16.2397 0.16807 15.2435 0.647416C14.6702 0.922335 13.8854 1.62373 13.975 2.163C13.9926 2.27439 14.047 2.37696 14.13 2.45473C14.213 2.5325 14.3197 2.58111 14.4337 2.593C14.792 2.63882 15.609 2.80095 16.0247 3.35432C16.4869 3.97112 16.5729 5.41973 16.5694 5.92375V5.95547C16.5694 5.95547 16.6625 7.30187 16.6016 8.68704C16.4905 11.1789 16.0104 11.5596 15.9172 11.6089C15.854 11.6451 15.7824 11.6645 15.7093 11.6653C15.0213 11.6653 13.7493 10.1004 11.9325 7.01285C11.0923 5.53921 10.3479 4.0147 9.70368 2.44849C9.55886 2.11008 9.33112 1.8122 9.04077 1.58143C8.69345 1.34942 8.30029 1.19209 7.88695 1.11971H7.81528L1.79169 1.15496C1.60894 1.15496 0.680862 1.21135 0.247278 1.71185C-0.186305 2.21234 0.0931881 3.023 0.150521 3.17808C0.150521 3.17808 0.150521 3.17808 0.150521 3.1957C0.347605 3.6398 4.95935 14.1713 10.2914 19.6309C14.7705 24.2129 19.8624 24.4455 20.8371 24.4455H23.6178C24.1429 24.3911 24.6365 24.1724 25.026 23.8217C25.336 23.4295 25.4981 22.9437 25.4847 22.4471C25.4847 21.6646 25.6746 19.3595 26.7138 19.0353C26.7644 19.018 26.8178 19.0096 26.8714 19.0106C27.5487 19.0106 28.5341 20.1209 29.4873 21.1923C30.2219 22.0953 31.064 22.9082 31.9956 23.6137C32.786 24.1896 33.7358 24.5154 34.7189 24.5478C34.8387 24.5481 34.9584 24.541 35.0773 24.5266L40.678 24.4491H40.6959C40.8644 24.4491 42.3335 24.3222 42.8459 23.3564C43.1254 22.7855 43.0323 22.1158 42.5628 21.3474ZM42.0863 22.9511C41.839 23.4164 40.9432 23.5785 40.6529 23.5996L35.0343 23.6807H34.9626C34.8839 23.6865 34.8048 23.6865 34.7261 23.6807C33.9121 23.6472 33.1275 23.372 32.4758 22.8912C31.6083 22.2206 30.822 21.4543 30.1323 20.6072C28.9605 19.2855 27.9464 18.14 26.8858 18.14C26.7461 18.1387 26.607 18.1589 26.4737 18.1999C24.6569 18.7674 24.6534 22.0418 24.6605 22.4119C24.6732 22.7063 24.5917 22.9971 24.4276 23.2437C24.1798 23.442 23.8783 23.5645 23.5604 23.5961H20.8443C19.9269 23.5961 15.1468 23.3741 10.9041 19.0353C5.74411 13.7484 1.09652 3.22038 0.935272 2.85382C0.846489 2.65503 0.830036 2.43223 0.888687 2.22291C1.16275 2.04483 1.48475 1.95153 1.81319 1.95505L7.79019 1.9198C8.0639 1.97113 8.32455 2.07536 8.55703 2.22644C8.71965 2.36563 8.84826 2.53912 8.93327 2.73398C9.59467 4.3365 10.3607 5.89528 11.2266 7.40056C13.6991 11.6054 14.8099 12.4654 15.7273 12.4654C15.9403 12.4646 16.1497 12.4112 16.3364 12.3103C16.7593 12.0812 17.3362 11.4609 17.458 8.69409C17.5154 7.32654 17.4365 6.05769 17.4258 5.89203C17.4258 5.61006 17.4258 3.77727 16.7091 2.83972C16.2754 2.31902 15.6712 1.9627 14.9999 1.83168C15.1779 1.64038 15.389 1.48166 15.6234 1.36291C16.5228 0.932909 18.1532 0.872991 19.78 0.872991H20.6938C21.6577 0.833893 22.6224 0.926413 23.5604 1.14791C24.7716 1.43693 24.7931 2.23349 24.682 4.95096C24.6498 5.74752 24.6104 6.65334 24.6104 7.71072C24.6104 7.94335 24.6104 8.18655 24.6104 8.44737C24.5709 9.90655 24.5244 11.5631 25.6209 12.2575C25.7767 12.3567 25.9584 12.4093 26.144 12.409C26.7926 12.409 27.9643 11.8944 30.6232 7.45343C31.5364 5.87862 32.3282 4.23859 32.9918 2.54718C33.0802 2.36038 33.2129 2.19719 33.3788 2.07135C33.513 2.00511 33.6623 1.97358 33.8124 1.97972H33.9843L40.3197 1.94447H40.3663C40.5294 1.92785 40.6932 1.91962 40.8572 1.9198C41.5488 1.9198 42.054 2.06783 42.1364 2.29693C42.2618 2.64939 42.2045 3.9253 38.9114 8.25704C38.3703 8.96196 37.8938 9.57171 37.4781 10.1075C36.0018 11.9861 35.26 12.9271 35.2815 13.8647C35.303 14.8022 36.0949 15.553 37.668 16.9875L37.7683 17.0791C39.7858 18.919 41.194 20.5086 41.839 21.6611L41.882 21.7387C42.1508 22.2779 42.2332 22.6727 42.0863 22.9511Z"
                    />
                  </g>
                  <defs>
                    <clipPath id="clip0_337_1066">
                      <rect
                        width="43"
                        height="24.4713"
                        fill="white"
                        transform="translate(0 0.0589294)"
                      />
                    </clipPath>
                  </defs>
                </svg>
