                <svg
                  width="43"
                  height="30"
                  viewBox="0 0 43 30"
                  fill="none"
                  class="spot-links__icon"
                  stroke="#2E2E2E"
                  xmlns="http://www.w3.org/2000/svg"
                >
                  <g
                    id="&#208;&#160;&#208;&#181;&#208;&#182;&#208;&#184;&#208;&#188;_&#208;&#184;&#208;&#183;&#208;&#190;&#208;&#187;&#209;&#143;&#209;&#134;&#208;&#184;&#208;&#184;"
                    opacity="0.7"
                    clip-path="url(#clip0_337_1070)"
                  >
                    <path
                      id="Vector"
                      d="M29.9273 15.7363L29.9172 15.6941L29.9353 15.7263C30.1766 15.591 30.3289 15.3675 30.3574 15.1009C30.3824 14.8667 30.3065 14.654 30.2249 14.4982C30.0613 14.1859 29.7681 13.8987 29.4817 13.7308L29.4818 13.7306L29.4712 13.7248L19.1396 7.99761C19.1392 7.99737 19.1388 7.99712 19.1383 7.99688C18.9124 7.87072 18.6296 7.84723 18.4086 7.85007C18.1659 7.8532 17.901 7.89046 17.6544 7.95332C17.412 8.01511 17.1569 8.10934 16.9497 8.24348C16.7668 8.36185 16.483 8.60395 16.483 8.99232V20.1972C16.483 20.5827 16.7624 20.8255 16.9446 20.9455C17.1504 21.0811 17.404 21.1772 17.6454 21.2407C17.8907 21.3052 18.1547 21.3442 18.3969 21.3486C18.6142 21.3525 18.8924 21.3309 19.1176 21.209L29.9273 15.7363ZM39.8976 3.16032C41.5696 4.86509 42.5106 7.17926 42.5107 9.59426C42.5107 9.59442 42.5107 9.59459 42.5107 9.59475L42.5 20.4156C42.5 20.4157 42.5 20.4157 42.5 20.4157C42.4973 22.8291 41.555 25.1407 39.8833 26.8433C38.2119 28.5456 35.9482 29.5 33.59 29.5H9.3992C7.04216 29.5 4.77963 28.5454 3.10993 26.8429C1.4399 25.14 0.5 22.8285 0.5 20.4162V9.59475C0.499998 7.18137 1.43962 4.86858 3.10947 3.164C4.77893 1.45981 7.04147 0.50282 9.3995 0.5H33.6008C35.9607 0.5 38.2259 1.45577 39.8976 3.16032Z"
                    />
                  </g>
                  <defs>
                    <clipPath id="clip0_337_1070">
                      <rect width="43" height="30" fill="white" />
                    </clipPath>
                  </defs>
                </svg>
